# xmcd
#
# Track frame offsets: 
#        150
#        15743
#        31896
#        54596
#        71822
#        95642
#        122869
#        142247
#        159776
#        178418
#
# Disc length: 2786 seconds
#
# Revision: 0
# Processed by: cddbd v1.5.2PL0 Copyright (c) Steve Scherf et al.
# Submitted via: ExactAudioCopyFreeDBPlugin 1.0
#
DISCID=900ae00a
DTITLE=The King Bees - Carolina Bound
DYEAR=2011
DGENRE=Blues
TTITLE0=Carolina Bound (with Ray Roberts)
TTITLE1=You Were There (with Ray Roberts)
TTITLE2=Run Your Reputation Down (with Jerry McCain)
TTITLE3=Natchez Burning (with Nappy Brown)
TTITLE4=Under My Skin
TTITLE5=Send Me To The Jailhouse
TTITLE6=It's Tight
TTITLE7=What Mama Told Me (with Carey Bell)
TTITLE8=Party Shoppe
TTITLE9=Yonders Wall (with Chick Willis)
EXTD=
EXTT0=
EXTT1=
EXTT2=
EXTT3=
EXTT4=
EXTT5=
EXTT6=
EXTT7=
EXTT8=
EXTT9=
PLAYORDER=
